<?xml version="1.0" standalone="no"?>
<!DOCTYPE svg PUBLIC "-//W3C//DTD SVG 20010904//EN"
 "http://www.w3.org/TR/2001/REC-SVG-20010904/DTD/svg10.dtd">
<svg version="1.0" xmlns="http://www.w3.org/2000/svg"
 width="300.000000pt" height="300.000000pt" viewBox="0 0 300.000000 300.000000"
 preserveAspectRatio="xMidYMid meet">
<metadata>
Created by potrace 1.11, written by Peter Selinger 2001-2013
</metadata>
<g transform="translate(0.000000,300.000000) scale(0.100000,-0.100000)"
fill="#000000" stroke="none">
<path d="M1365 2964 c-209 -30 -310 -57 -453 -118 -334 -144 -626 -440 -766
-777 -152 -368 -153 -768 -1 -1134 188 -456 604 -790 1098 -882 125 -23 388
-23 513 0 759 140 1287 841 1204 1598 -71 652 -560 1180 -1198 1295 -85 15
-338 27 -397 18z m392 -143 c269 -52 497 -174 693 -371 262 -262 394 -581 394
-950 -1 -370 -132 -688 -394 -950 -259 -261 -580 -394 -950 -394 -370 0 -688
132 -950 394 -261 260 -394 580 -394 950 0 370 133 690 394 950 231 231 491
353 840 394 70 8 270 -4 367 -23z"/>
<path d="M1860 2304 c-145 -39 -237 -140 -287 -314 -16 -59 -18 -107 -18 -490
0 -381 2 -432 18 -489 51 -180 158 -288 318 -322 29 -6 96 -9 149 -7 146 7
246 58 315 161 62 92 87 189 93 365 l4 152 -156 0 -156 0 0 -117 c-1 -225 -38
-313 -133 -313 -52 0 -81 19 -110 73 -22 42 -22 45 -22 497 0 452 0 455 22
497 30 54 58 73 111 73 34 0 49 -6 72 -28 40 -40 51 -87 57 -244 l6 -138 153
0 154 0 0 126 c0 294 -89 453 -288 514 -78 24 -220 26 -302 4z"/>
<path d="M550 1499 l0 -791 258 5 c191 3 271 8 309 20 167 49 243 138 273 319
16 101 13 849 -4 929 -38 176 -138 268 -328 299 -35 5 -163 10 -285 10 l-223
0 0 -791z m464 547 c69 -29 66 -8 66 -543 0 -282 -4 -492 -10 -507 -14 -37
-47 -53 -122 -60 l-68 -7 0 566 0 565 50 0 c28 0 66 -6 84 -14z"/>
</g>
</svg>
